<?xml version="1.0" encoding="UTF-8"?>
<svg id="Capa_2" data-name="Capa 2" xmlns="http://www.w3.org/2000/svg" viewBox="0 0 93.57 86.37">
  <defs>
    <style>
      .cls-1 {
        fill: #c2d100;
      }
    </style>
  </defs>
  <g id="Layer_1" data-name="Layer 1">
    <g>
      <path class="cls-1" d="M32.65,61.98c-.18.88-.28,1.79-.28,2.72,0,7.85,6.38,14.21,14.23,14.21s14.2-6.37,14.2-14.21c0-.93-.09-1.84-.26-2.72-1.28-6.55-7.04-11.49-13.94-11.49s-12.67,4.94-13.95,11.49ZM41.48,68.75l4.23-4.24v-8.04c0-.67.55-1.24,1.24-1.24s1.22.56,1.22,1.24v8.54h0c0,.16-.03.31-.08.45-.02,0-.02.01-.02.02-.04.15-.15.29-.25.4l-4.6,4.6c-.24.24-.57.35-.87.35s-.63-.12-.87-.35c-.48-.48-.48-1.26,0-1.73Z"/>
      <path class="cls-1" d="M79.87,13.7C61.6-4.57,31.97-4.57,13.7,13.7c-18.27,18.27-18.27,47.89,0,66.17,2.4,2.4,5.01,4.48,7.75,6.25v-42.79l-4.1-6.63,9.02-.97c.4-12.43,8.64-22.44,18.96-23.21v-5.02c0-.69.56-1.25,1.26-1.25s1.24.56,1.24,1.25v5.02c10.34.77,18.58,10.8,18.98,23.25l9.01.93-4.11,6.63v43.05c2.89-1.82,5.63-3.98,8.15-6.5,18.27-18.27,18.27-47.89,0-66.17Z"/>
      <path class="cls-1" d="M46.68,24.52s-3.96,1.87-3.63,11.45h7.27s.43-8.58-3.64-11.45Z"/>
    </g>
  </g>
</svg>