<svg width="25" height="25" viewBox="0 0 25 25" fill="none" xmlns="http://www.w3.org/2000/svg">
<path d="M13 14.7578C13.9688 14.7578 14.7617 13.9688 14.7617 12.9961C14.7617 12.6133 14.6367 12.2578 14.4297 11.9688C14.1094 11.5273 13.5898 11.2344 13.0039 11.2344C12.418 11.2344 11.8984 11.5234 11.5781 11.9688C11.3711 12.2578 11.2461 12.6133 11.2461 12.9961C11.2422 13.9688 12.0313 14.7578 13 14.7578Z" fill="white"/>
<path d="M16.8438 10.8477V9.15234H16.625L15.1484 9.15625L15.1563 10.8516L16.8438 10.8477Z" fill="white"/>
<path d="M15.7344 13C15.7344 14.5078 14.5078 15.7344 13 15.7344C11.4922 15.7344 10.2656 14.5078 10.2656 13C10.2656 12.6367 10.3398 12.2891 10.4688 11.9727H8.97656V16.0664C8.97656 16.5937 9.40625 17.0234 9.93359 17.0234H16.0664C16.5938 17.0234 17.0234 16.5937 17.0234 16.0664V11.9727H15.5313C15.6641 12.2891 15.7344 12.6367 15.7344 13Z" fill="white"/>
<path d="M13 3C7.47656 3 3 7.47656 3 13C3 18.5234 7.47656 23 13 23C18.5234 23 23 18.5234 23 13C23 7.47656 18.5234 3 13 3ZM18 16.0664C18 17.1328 17.1328 18 16.0664 18H9.93359C8.86719 18 8 17.1328 8 16.0664V9.92969C8 8.86328 8.86719 7.99609 9.93359 7.99609H16.0664C17.1328 7.99609 18 8.86328 18 9.92969V16.0664Z" fill="white"/>
</svg>
