<?xml version="1.0" encoding="UTF-8"?>
<svg id="Layer_2" data-name="Layer 2" xmlns="http://www.w3.org/2000/svg" xmlns:xlink="http://www.w3.org/1999/xlink" viewBox="0 0 373.73 163.66">
  <defs>
    <style>
      .cls-1 {
        fill: #fff;
      }

      .cls-2 {
        filter: url(#drop-shadow-1);
      }

      .cls-3 {
        fill: #c6f600;
      }

      .cls-4 {
        fill: #161616;
      }
    </style>
    <filter id="drop-shadow-1" x="-2.43" y="6.39" width="53" height="36" filterUnits="userSpaceOnUse">
      <feOffset dx="2" dy="2"/>
      <feGaussianBlur result="blur" stdDeviation="2"/>
      <feFlood flood-color="#1b094c" flood-opacity=".9"/>
      <feComposite in2="blur" operator="in"/>
      <feComposite in="SourceGraphic"/>
    </filter>
  </defs>
  <g id="Layer_1-2" data-name="Layer 1">
    <g>
      <g>
        <path class="cls-1" d="M8.5,112.46L23.49,21.95l35.21-2.29c5.51-.36,10.35.12,14.5,1.44,4.16,1.32,7.54,3.32,10.16,6,2.62,2.68,4.42,5.93,5.4,9.75.98,3.82,1.1,8,.34,12.56-.72,4.36-2.22,8.52-4.49,12.48-2.27,3.96-5.2,7.5-8.78,10.62-3.58,3.12-7.72,5.64-12.41,7.57-4.7,1.93-9.8,3.07-15.31,3.43l-8.78.57-4.41,26.65-26.44,1.72ZM42.8,63.27l6.02-.39c2.59-.17,4.82-.76,6.71-1.78s3.42-2.36,4.61-4.03c1.19-1.67,1.95-3.54,2.29-5.62.33-2.01.18-3.81-.47-5.39-.65-1.58-1.79-2.8-3.43-3.66-1.64-.85-3.69-1.2-6.14-1.04l-6.02.39-3.56,21.52Z"/>
        <path class="cls-1" d="M125.72,106.83c-6.81.44-12.98-.37-18.53-2.43-5.55-2.06-10.2-5.11-13.94-9.14-3.74-4.03-6.4-8.82-7.97-14.35-1.57-5.53-1.82-11.59-.73-18.16,1.09-6.57,3.36-12.79,6.82-18.65,3.46-5.86,7.78-11.1,12.95-15.72,5.17-4.61,10.94-8.34,17.3-11.17,6.36-2.83,12.94-4.47,19.75-4.92,6.8-.44,12.98.37,18.53,2.43,5.55,2.06,10.21,5.11,13.99,9.14,3.78,4.03,6.45,8.82,8.02,14.35,1.57,5.54,1.82,11.59.73,18.16-1.09,6.57-3.36,12.79-6.83,18.65-3.46,5.86-7.8,11.1-13,15.72-5.21,4.62-10.99,8.34-17.35,11.18-6.36,2.83-12.94,4.47-19.75,4.92ZM130.05,80.68c3.06-.2,5.98-.94,8.75-2.21,2.77-1.27,5.3-2.95,7.6-5.02,2.3-2.07,4.18-4.42,5.66-7.03,1.48-2.62,2.46-5.4,2.95-8.35.48-2.88.4-5.55-.24-7.99-.64-2.45-1.78-4.58-3.44-6.39-1.65-1.81-3.68-3.19-6.08-4.13-2.4-.94-5.13-1.31-8.2-1.11-2.99.19-5.88.93-8.65,2.2-2.77,1.27-5.3,2.95-7.6,5.02-2.3,2.07-4.18,4.4-5.65,6.98-1.47,2.58-2.45,5.32-2.92,8.2-.49,2.95-.42,5.67.22,8.14.63,2.48,1.77,4.63,3.43,6.44,1.65,1.82,3.68,3.19,6.08,4.13,2.4.94,5.1,1.31,8.1,1.12Z"/>
        <path class="cls-1" d="M177.66,101.46l14.99-90.51,28.17-1.83-11.16,67.38,24.4-1.59-3.83,23.13-52.57,3.42Z"/>
        <path class="cls-1" d="M232.43,97.9l14.99-90.51,28.17-1.83-11.16,67.38,24.4-1.59-3.83,23.13-52.57,3.42Z"/>
        <path class="cls-1" d="M285.12,94.47L338.51.76l11.74-.76,23.48,88.71-27.25,1.77-2.57-9.48-26.34,1.71-5.8,10.03-26.64,1.73ZM326.1,66.54l14.5-.94-1-4.31c-.7-2.67-1.27-5.17-1.69-7.5-.42-2.33-.79-5.17-1.11-8.53-1.52,3.48-2.86,6.4-4.03,8.77-1.17,2.36-2.53,5.02-4.1,7.98l-2.57,4.54Z"/>
      </g>
      <g>
        <path class="cls-3" d="M307.36,134.23l3.57-31.23c.37-3.25,3.02-5.77,6.29-5.99l21.22-1.38-1.22,10.67-14.13.92-.61,5.34,11.69-.76-1.04,9.08-11.69.76-1,8.78,14.13-.92-1.26,11.02-18.79,1.22c-4.21.27-7.64-3.33-7.16-7.52Z"/>
        <path class="cls-3" d="M345.51,139.74l3.82-33.42-9.44.61,1.31-11.47,29.35-1.9c1.59-.1,2.89,1.26,2.71,2.85l-.72,6.3c-.14,1.23-1.14,2.19-2.38,2.27l-7.3.47-3.57,31.29c-.14,1.23-1.14,2.19-2.38,2.27l-11.4.74Z"/>
      </g>
      <path class="cls-3" d="M289.82,144.02L11.49,163.64c-6.73.41-12.27-4.19-11.4-9.45l4.88-29.4c.64-3.86,4.61-6.82,9.55-7.12l278.33-19.62c6.73-.41,12.27,4.19,11.4,9.45l-4.88,29.4c-.64,3.86-4.61,6.82-9.55,7.12Z"/>
      <g>
        <path class="cls-4" d="M13.89,155.36l5.87-32.09h.07s11.41,17.71,11.41,17.71l17.95-19.73h.07s-5.87,32.08-5.87,32.08l-5.56.38,1.87-10.25c.19-1.01.41-2.13.67-3.35.26-1.22.62-2.63,1.1-4.23-.95,1.27-1.84,2.37-2.68,3.3s-1.61,1.8-2.31,2.59l-6.93,7.87-4.41-7.09c-.41-.68-.88-1.48-1.42-2.41-.55-.93-1.06-1.93-1.56-3.01-.11,1.6-.26,3.01-.45,4.24-.19,1.23-.38,2.35-.56,3.36l-1.87,10.25-5.39.37Z"/>
        <path class="cls-4" d="M60.9,152.78c-2.17.15-4.01-.16-5.53-.93-1.52-.77-2.6-1.95-3.26-3.52-.66-1.58-.78-3.48-.37-5.71l3.8-20.77,5.88-.4-3.75,20.49c-.21,1.17-.17,2.18.14,3.02.31.84.82,1.48,1.54,1.9.72.43,1.6.61,2.65.53,1.03-.07,1.99-.37,2.89-.9.9-.53,1.66-1.23,2.27-2.11.61-.88,1.02-1.87,1.22-2.98l3.79-20.7,5.7-.39-3.78,20.67c-.41,2.25-1.25,4.24-2.51,5.96-1.26,1.72-2.81,3.09-4.64,4.1-1.83,1.01-3.84,1.59-6.04,1.74Z"/>
        <path class="cls-4" d="M103.43,150.24l-15.98-18.42-3.43,18.73-5.39.37,5.87-32.09h.07s16.02,18.38,16.02,18.38l3.42-18.7,5.35-.37-5.87,32.09h-.07Z"/>
        <path class="cls-4" d="M110.89,148.7l5.68-31.05,10.64-.73c2.59-.18,4.85.08,6.77.76,1.92.69,3.49,1.7,4.7,3.05,1.21,1.35,2.03,2.93,2.47,4.74.44,1.81.47,3.75.09,5.82s-1.13,4.06-2.25,5.98c-1.12,1.92-2.55,3.65-4.28,5.2-1.74,1.55-3.72,2.81-5.95,3.78-2.23.97-4.64,1.54-7.23,1.72l-10.64.73ZM117.42,143.25l4.52-.31c1.94-.13,3.67-.54,5.2-1.21,1.53-.67,2.86-1.54,3.98-2.59,1.12-1.05,2.04-2.22,2.75-3.49.7-1.27,1.18-2.59,1.43-3.95.25-1.36.25-2.65,0-3.87-.25-1.22-.76-2.29-1.52-3.22-.76-.92-1.81-1.62-3.13-2.08-1.32-.47-2.95-.63-4.88-.5l-4.52.31-3.82,20.91Z"/>
        <path class="cls-4" d="M144.25,146.41l5.68-31.05,5.88-.4-5.68,31.05-5.88.4Z"/>
        <path class="cls-4" d="M154.47,145.71l19.67-33.1h.07s7.87,31.21,7.87,31.21l-5.84.4-1.49-6.23-10.78.74-3.87,6.6-5.63.39ZM166.69,134.04l6.96-.48-.92-3.82c-.2-.8-.38-1.59-.54-2.35-.16-.76-.28-1.66-.37-2.7-.45,1.05-.89,1.99-1.32,2.8-.44.81-.92,1.65-1.44,2.5l-2.36,4.05Z"/>
        <path class="cls-4" d="M186.14,143.54l5.68-31.05,5.91-.41-4.75,25.98,9.8-.67-.93,5.07-15.71,1.08Z"/>
        <path class="cls-4" d="M207.41,142.08l5.68-31.05,5.88-.4-5.68,31.05-5.88.4Z"/>
        <path class="cls-4" d="M228.44,141.25c-1.26.09-2.45.01-3.57-.23-1.12-.24-2.11-.6-2.96-1.09-.86-.49-1.56-1.04-2.12-1.66l2.74-6.49c.37.88.9,1.67,1.59,2.36s1.5,1.22,2.44,1.59c.94.37,1.94.52,3.01.44.91-.06,1.74-.29,2.48-.7.74-.4,1.36-.92,1.84-1.56.48-.63.79-1.32.93-2.06.16-.87.08-1.58-.23-2.13-.31-.55-.72-.98-1.21-1.31-.49-.33-.92-.57-1.28-.73l-3.4-1.61c-.87-.39-1.73-.9-2.57-1.53-.84-.62-1.48-1.45-1.91-2.47-.43-1.03-.51-2.33-.22-3.92.23-1.26.67-2.44,1.3-3.53.64-1.09,1.45-2.04,2.44-2.86.99-.82,2.11-1.47,3.35-1.97,1.24-.49,2.59-.79,4.03-.89,1.82-.12,3.38.06,4.69.55,1.3.49,2.33,1.03,3.07,1.61l-2.65,6.35c-.42-.72-.96-1.35-1.61-1.88-.65-.54-1.38-.95-2.17-1.25-.8-.3-1.64-.42-2.53-.35-.79.05-1.5.25-2.13.59-.63.34-1.14.77-1.53,1.28-.39.52-.65,1.08-.76,1.7-.11.62-.07,1.15.14,1.59.21.44.52.81.95,1.11.43.3.9.57,1.41.81l3.44,1.6c.53.24,1.12.56,1.78.97.65.41,1.26.94,1.83,1.59s.99,1.47,1.27,2.43c.27.97.28,2.14.03,3.52-.32,1.77-1.04,3.4-2.14,4.88-1.1,1.48-2.48,2.69-4.15,3.62-1.67.93-3.54,1.47-5.62,1.61Z"/>
        <path class="cls-4" d="M248.61,139.25l4.75-25.98-7.87.54.93-5.07,21.66-1.49-.93,5.07-7.88.54-4.75,25.98-5.91.41Z"/>
        <path class="cls-4" d="M260.15,138.46l19.67-33.1h.07s7.87,31.21,7.87,31.21l-5.84.4-1.49-6.23-10.78.74-3.87,6.6-5.63.39ZM272.38,126.79l6.96-.48-.93-3.82c-.2-.8-.38-1.59-.54-2.35-.16-.76-.28-1.66-.37-2.7-.45,1.05-.89,1.99-1.32,2.8-.44.81-.92,1.65-1.44,2.5l-2.36,4.05Z"/>
      </g>
      <g class="cls-2">
        <path class="cls-1" d="M1.65,34.06L15.09,11.15l6.38-.45-10.34,17.64,6.45-.45-3.1,5.27-12.83.9Z"/>
        <path class="cls-1" d="M23.95,32.83c-.97.07-1.79-.04-2.47-.34-.68-.29-1.22-.72-1.63-1.29-.41-.56-.63-1.26-.68-2.08-.04-.82.1-1.72.43-2.7.42-1.25,1.07-2.44,1.94-3.58s1.89-2.16,3.05-3.08c1.16-.92,2.38-1.66,3.66-2.22,1.28-.56,2.53-.89,3.76-.97.95-.07,1.79.02,2.52.26.73.24,1.27.62,1.62,1.13l.8-1.4,4.82-.34-9.17,15.65-4.67.33.72-1.22c-.81.54-1.6.98-2.38,1.29-.78.32-1.56.5-2.34.55ZM27.17,27.87c.66-.05,1.32-.25,1.98-.61.66-.36,1.25-.83,1.77-1.41.51-.57.88-1.18,1.1-1.83.17-.52.21-.98.11-1.38-.1-.4-.32-.71-.65-.92-.33-.21-.79-.3-1.38-.26-.64.04-1.29.25-1.96.62-.67.37-1.26.84-1.79,1.4-.53.56-.9,1.17-1.13,1.84-.17.5-.2.95-.09,1.35.11.4.33.71.67.93s.79.31,1.36.27Z"/>
      </g>
    </g>
  </g>
</svg>