<?xml version="1.0" encoding="UTF-8"?>
<svg id="Capa_2" data-name="Capa 2" xmlns="http://www.w3.org/2000/svg" viewBox="0 0 420.93 115.82">
  <defs>
    <style>
      .cls-1 {
        fill: #1d1d1b;
      }

      .cls-2 {
        fill: #9d9d9c;
      }

      .cls-3 {
        fill: #008dbf;
      }
    </style>
  </defs>
  <g id="Layer_1" data-name="Layer 1">
    <g>
      <g>
        <path class="cls-2" d="M116.96,112.8v2.88h-11.74v-16.9h11.52v2.88h-8.24v4.07h7.12v2.67h-7.12v4.4h8.45Z"/>
        <path class="cls-2" d="M119.36,115.68v-16.9h3.29v14.02h8.62v2.88h-11.9Z"/>
        <path class="cls-2" d="M137.96,115.68v-16.9h6.14c1.38,0,2.59.22,3.63.67,1.04.44,1.91,1.05,2.61,1.81.7.76,1.22,1.65,1.57,2.68.35,1.02.52,2.12.52,3.27,0,1.29-.19,2.45-.58,3.49-.39,1.04-.95,1.93-1.68,2.67-.73.74-1.61,1.31-2.63,1.71-1.02.4-2.17.61-3.44.61h-6.14ZM149.12,107.2c0-.81-.11-1.56-.33-2.24-.22-.68-.55-1.27-.98-1.76-.43-.49-.96-.87-1.58-1.14-.63-.27-1.34-.4-2.13-.4h-2.86v11.14h2.86c.81,0,1.53-.14,2.15-.43.63-.29,1.15-.68,1.57-1.18.42-.5.74-1.09.96-1.77.22-.68.33-1.42.33-2.21Z"/>
        <path class="cls-2" d="M166.55,112.8v2.88h-11.74v-16.9h11.52v2.88h-8.24v4.07h7.12v2.67h-7.12v4.4h8.45Z"/>
        <path class="cls-2" d="M167.95,107.11c0-1.03.18-2.05.55-3.06.36-1.01.89-1.91,1.58-2.7s1.54-1.44,2.54-1.93c1-.49,2.14-.74,3.43-.74,1.51,0,2.81.34,3.92,1.02,1.1.68,1.92,1.57,2.44,2.67l-2.52,1.74c-.19-.48-.44-.88-.74-1.2-.3-.33-.63-.58-.99-.77s-.73-.33-1.11-.42-.75-.13-1.1-.13c-.78,0-1.46.17-2.05.5-.59.33-1.08.77-1.46,1.3-.39.53-.68,1.13-.88,1.81-.2.67-.3,1.35-.3,2.01,0,.75.11,1.46.34,2.15.23.69.56,1.3.98,1.82.42.52.92.94,1.51,1.26.59.32,1.23.48,1.93.48.37,0,.74-.05,1.12-.14s.75-.25,1.11-.45.69-.47.99-.8c.3-.32.55-.72.74-1.18l2.69,1.55c-.25.63-.62,1.19-1.11,1.68-.48.48-1.04.89-1.66,1.23s-1.27.59-1.95.76c-.68.17-1.36.26-2.02.26-1.17,0-2.25-.25-3.23-.76s-1.82-1.17-2.52-1.99c-.71-.82-1.25-1.75-1.64-2.79-.39-1.04-.58-2.1-.58-3.18Z"/>
        <path class="cls-2" d="M182.72,115.68l6.67-16.9h2.67l6.64,16.9h-3.48l-1.55-4.21h-5.93l-1.55,4.21h-3.48ZM190.72,102.32l-2.43,6.83h4.79l-2.36-6.83Z"/>
        <path class="cls-2" d="M203.55,104.84v10.83h-3.29v-16.9h2.55l8.81,11.09v-11.07h3.29v16.88h-2.67l-8.69-10.83Z"/>
        <path class="cls-2" d="M225.21,115.8c-1.19,0-2.28-.24-3.26-.73s-1.83-1.13-2.54-1.93c-.71-.8-1.25-1.72-1.63-2.75-.38-1.03-.57-2.09-.57-3.17s.2-2.21.61-3.24c.4-1.03.97-1.94,1.69-2.74.72-.79,1.57-1.42,2.56-1.89.98-.47,2.06-.7,3.21-.7s2.28.25,3.26.75c.98.5,1.82,1.15,2.52,1.96s1.24,1.73,1.62,2.76c.38,1.03.57,2.08.57,3.14,0,1.13-.2,2.2-.61,3.23-.41,1.02-.96,1.93-1.68,2.71-.72.79-1.56,1.41-2.55,1.88-.98.47-2.06.7-3.21.7ZM220.52,107.23c0,.73.11,1.44.32,2.12s.52,1.29.93,1.81c.4.52.9.94,1.49,1.26.59.32,1.25.48,2,.48s1.43-.16,2.01-.49c.58-.32,1.07-.76,1.46-1.3.4-.54.7-1.15.9-1.82.21-.67.31-1.36.31-2.06s-.11-1.44-.33-2.12c-.22-.68-.54-1.29-.94-1.81-.41-.52-.9-.94-1.48-1.25-.58-.31-1.23-.46-1.96-.46s-1.43.16-2.01.49c-.58.33-1.07.75-1.48,1.29s-.71,1.13-.92,1.81-.31,1.36-.31,2.06Z"/>
        <path class="cls-2" d="M241.02,115.68v-16.9h6.14c1.38,0,2.59.22,3.63.67,1.04.44,1.91,1.05,2.61,1.81.7.76,1.22,1.65,1.57,2.68.35,1.02.52,2.12.52,3.27,0,1.29-.2,2.45-.58,3.49s-.95,1.93-1.68,2.67-1.61,1.31-2.63,1.71c-1.02.4-2.17.61-3.44.61h-6.14ZM252.19,107.2c0-.81-.11-1.56-.33-2.24-.22-.68-.55-1.27-.98-1.76s-.96-.87-1.58-1.14c-.63-.27-1.34-.4-2.13-.4h-2.86v11.14h2.86c.81,0,1.53-.14,2.15-.43s1.15-.68,1.57-1.18c.42-.5.74-1.09.96-1.77.22-.68.33-1.42.33-2.21Z"/>
        <path class="cls-2" d="M257.88,115.68v-16.88h3.29v16.88h-3.29Z"/>
        <path class="cls-2" d="M275.78,113.77c-1.3,1.35-2.8,2.02-4.5,2.02-1.08,0-2.1-.24-3.05-.71-.95-.48-1.78-1.12-2.49-1.92-.71-.8-1.26-1.73-1.67-2.77s-.61-2.14-.61-3.26.2-2.25.61-3.27c.4-1.02.97-1.92,1.69-2.69.72-.77,1.57-1.38,2.55-1.83.98-.45,2.04-.68,3.18-.68,1.54,0,2.86.33,3.95,1s1.92,1.56,2.48,2.69l-2.45,1.81c-.41-.84-.98-1.48-1.7-1.93-.72-.44-1.52-.67-2.39-.67-.7,0-1.33.15-1.89.45-.56.3-1.04.71-1.44,1.24-.4.52-.71,1.13-.93,1.81s-.33,1.4-.33,2.17.12,1.54.36,2.23c.24.69.57,1.29,1,1.8s.93.91,1.51,1.2c.58.29,1.22.44,1.92.44,1.56,0,2.96-.77,4.21-2.31v-1.19h-3.41v-2.4h6.12v8.69h-2.71v-1.91Z"/>
        <path class="cls-2" d="M281.09,115.68v-16.88h3.29v16.88h-3.29Z"/>
        <path class="cls-2" d="M300.31,101.65h-5.38v14.02h-3.29v-14.02h-5.4v-2.88h14.07v2.88Z"/>
        <path class="cls-2" d="M298.9,115.68l6.67-16.9h2.67l6.64,16.9h-3.48l-1.55-4.21h-5.93l-1.55,4.21h-3.48ZM306.9,102.32l-2.43,6.83h4.79l-2.36-6.83Z"/>
        <path class="cls-2" d="M316.45,115.68v-16.9h3.29v14.02h8.62v2.88h-11.9Z"/>
        <path class="cls-3" d="M105.3,84.29V21h21.68v4.58h-16v23.71h13.1v4.43h-13.1v26.11h16.18v4.47h-21.86Z"/>
        <path class="cls-3" d="M130.76,84.29V21h5.68v58.83h17.09v4.47h-22.77Z"/>
        <path class="cls-1" d="M157.88,84.29V29.51h-10.06v-8.51h30.73v8.51h-9.74v54.78h-10.93Z"/>
        <path class="cls-1" d="M179.25,84.29V21h25.12v8.13h-14.19v18.17h11.22v8.13h-11.22v20.88h14.37v7.98h-25.3Z"/>
        <path class="cls-1" d="M205.63,84.29V21h10.93v55.31h14.37v7.98h-25.3Z"/>
        <path class="cls-1" d="M231.51,84.29V21h25.12v8.13h-14.19v18.17h11.22v8.13h-11.22v20.88h14.37v7.98h-25.3ZM241.28,15.61l4.42-15.61h10.24l-8.91,15.61h-5.76Z"/>
        <path class="cls-1" d="M272.92,85.13c-5.67,0-9.76-1.87-12.25-5.61-2.5-3.74-3.75-9.19-3.75-16.34v-20.61c0-3.64.27-6.78.81-9.41.54-2.63,1.45-4.94,2.73-6.93,1.28-1.99,3.04-3.47,5.29-4.47,2.24-.99,4.99-1.49,8.25-1.49,5.94,0,10.2,1.53,12.78,4.6,2.58,3.07,3.87,7.72,3.87,13.95v3.09h-10.46v-3.28c0-1.4-.03-2.54-.09-3.44-.06-.89-.21-1.79-.43-2.69-.23-.9-.56-1.6-1-2.08s-1.03-.88-1.77-1.18c-.75-.31-1.67-.46-2.75-.46-.82,0-1.55.11-2.19.32-.64.22-1.18.48-1.61.8-.43.32-.8.77-1.1,1.36-.3.59-.53,1.15-.69,1.7-.16.55-.28,1.25-.36,2.12-.08.87-.14,1.63-.16,2.29-.02.66-.04,1.51-.04,2.56v25.54c0,3.82.45,6.61,1.34,8.38.89,1.77,2.59,2.65,5.1,2.65,1.3,0,2.39-.26,3.27-.78.88-.52,1.57-1.31,2.06-2.37.49-1.06.84-2.27,1.05-3.63.21-1.36.31-3.01.31-4.94v-5.19h-6.48v-7.44h16.33v32.14h-7.1l-.8-6.41c-1.81,4.84-5.2,7.25-10.17,7.25Z"/>
        <path class="cls-1" d="M292.87,84.29V21h13.76c3.16,0,5.88.27,8.15.82,2.27.55,4.24,1.46,5.92,2.75,1.68,1.28,2.93,3.03,3.77,5.23.83,2.2,1.25,4.89,1.25,8.07,0,3.97-.56,7.22-1.68,9.73-1.12,2.52-2.98,4.35-5.56,5.5l8.33,31.19h-10.97l-7.17-28.9h-4.85v28.9h-10.93ZM303.8,48.02h2.64c3.23,0,5.53-.73,6.9-2.18,1.36-1.45,2.05-3.93,2.05-7.44s-.59-5.81-1.77-7.27c-1.18-1.46-3.36-2.2-6.52-2.2h-3.29v19.09Z"/>
        <path class="cls-1" d="M325.66,84.29l12.2-63.29h11.4l12.16,63.29h-10.17l-2.42-14.7h-10.39l-2.46,14.7h-10.32ZM339.6,62.07h8.04l-4.02-26-4.02,26Z"/>
        <path class="cls-1" d="M362.11,84.29V21h24.65v7.98h-13.72v18.4h10.97v8.13h-10.97v28.78h-10.93Z"/>
        <path class="cls-1" d="M403.62,85.05c-6.18,0-10.61-1.77-13.28-5.31-2.68-3.54-4.02-8.72-4.02-15.54v-23.36c0-3.36.3-6.27.91-8.74.6-2.47,1.57-4.61,2.91-6.41,1.34-1.81,3.13-3.16,5.38-4.06,2.24-.9,4.95-1.36,8.11-1.36,6.15,0,10.58,1.74,13.27,5.23,2.69,3.49,4.04,8.6,4.04,15.35v23.36c0,3.31-.31,6.22-.92,8.72-.62,2.51-1.59,4.68-2.93,6.53-1.34,1.85-3.13,3.24-5.38,4.18-2.24.94-4.93,1.41-8.07,1.41ZM400.89,76c.76.33,1.67.5,2.73.5s1.97-.16,2.71-.5c.75-.33,1.35-.76,1.79-1.3.45-.53.8-1.23,1.05-2.1.25-.87.42-1.73.51-2.6.08-.87.13-1.9.13-3.09v-28.74c0-1.53-.07-2.8-.22-3.82-.14-1.02-.43-1.98-.85-2.88-.42-.9-1.06-1.58-1.9-2.02-.84-.45-1.92-.67-3.22-.67s-2.38.22-3.24.67-1.49,1.12-1.9,2.02c-.41.9-.69,1.86-.83,2.88-.14,1.02-.22,2.29-.22,3.82v28.74c0,1.2.04,2.23.13,3.09s.25,1.73.51,2.6.6,1.56,1.03,2.1c.43.53,1.03.97,1.79,1.3Z"/>
      </g>
      <g>
        <path class="cls-3" d="M32.65,66.76c-.18.88-.28,1.79-.28,2.72,0,7.85,6.38,14.21,14.23,14.21s14.2-6.37,14.2-14.21c0-.93-.09-1.84-.26-2.72-1.28-6.55-7.04-11.49-13.94-11.49s-12.67,4.94-13.95,11.49ZM41.48,73.52l4.23-4.24v-8.04c0-.67.55-1.24,1.24-1.24s1.22.56,1.22,1.24v8.54h0c0,.16-.03.31-.08.45-.02,0-.02.01-.02.02-.04.15-.15.29-.25.4l-4.6,4.6c-.24.24-.57.35-.87.35s-.63-.12-.87-.35c-.48-.48-.48-1.26,0-1.73Z"/>
        <path class="cls-3" d="M79.87,18.48C61.6.21,31.97.21,13.7,18.48c-18.27,18.27-18.27,47.89,0,66.17,2.4,2.4,5.01,4.48,7.75,6.25v-42.79l-4.1-6.63,9.02-.97c.4-12.43,8.64-22.44,18.96-23.21v-5.02c0-.69.56-1.25,1.26-1.25s1.24.56,1.24,1.25v5.02c10.34.77,18.58,10.8,18.98,23.25l9.01.93-4.11,6.63v43.05c2.89-1.82,5.63-3.98,8.15-6.5,18.27-18.27,18.27-47.89,0-66.17Z"/>
        <path class="cls-3" d="M46.68,29.29s-3.96,1.87-3.63,11.45h7.27s.43-8.58-3.64-11.45Z"/>
      </g>
    </g>
  </g>
</svg>