<svg width="14" height="14" viewBox="0 0 14 14" fill="none" xmlns="http://www.w3.org/2000/svg">
<g clip-path="url(#clip0_299_576)">
<path d="M6.76 13.52C10.4934 13.52 13.52 10.4934 13.52 6.76C13.52 3.02656 10.4934 0 6.76 0C3.02656 0 0 3.02656 0 6.76C0 10.4934 3.02656 13.52 6.76 13.52Z" fill="white"/>
<path d="M8.09994 8.5V5.15C8.09994 5.15 8.47994 5.78 9.83994 5.82C9.90994 5.82 9.96994 5.76 9.96994 5.69V4.74C9.96994 4.66999 9.90994 4.61 9.83994 4.61C8.77994 4.55 8.27994 3.74 8.22994 2.99C8.22994 2.92 8.16994 2.87 8.09994 2.87H7.01994C6.94994 2.87 6.88994 2.93 6.88994 3V8.31999C6.88994 8.89999 6.44994 9.4 5.86994 9.43C5.20994 9.46 4.66994 8.89 4.74994 8.22C4.80994 7.75 5.18994 7.36 5.65994 7.29C5.74994 7.27999 5.84994 7.27999 5.92994 7.29C6.00994 7.29 6.07994 7.24 6.07994 7.16V6.21C6.07994 6.14 6.02994 6.08 5.95994 6.08C5.81994 6.08 5.68994 6.08 5.53994 6.09C4.49994 6.21 3.65994 7.05 3.53994 8.09C3.38994 9.46 4.45994 10.63 5.79994 10.63C7.05994 10.63 8.07994 9.61 8.07994 8.35" fill="#0E0A30"/>
</g>
<defs>
<clipPath id="clip0_299_576">
<rect width="13.52" height="13.52" fill="white"/>
</clipPath>
</defs>
</svg>
