<svg width="60" height="60" viewBox="0 0 60 60" fill="none" xmlns="http://www.w3.org/2000/svg">
<path d="M55 30C55 43.807 43.807 55 30 55C16.1929 55 5 43.807 5 30C5 16.1929 16.1929 5 30 5C43.807 5 55 16.1929 55 30Z" fill="#C6F600"/>
<path d="M42.0175 47.528C38.5995 49.876 34.4602 51.25 30 51.25C25.5397 51.25 21.4006 49.8758 17.9825 47.5278C16.4729 46.4908 15.8277 44.5155 16.7055 42.908C18.525 39.5755 22.2743 37.5 30 37.5C37.7257 37.5 41.475 39.5758 43.2945 42.908C44.1722 44.5155 43.527 46.491 42.0175 47.528Z" fill="#1D1D1B"/>
<path d="M30 30C34.1423 30 37.5 26.6423 37.5 22.5C37.5 18.3579 34.1423 15 30 15C25.858 15 22.5001 18.3579 22.5001 22.5C22.5001 26.6423 25.858 30 30 30Z" fill="#1D1D1B"/>
</svg>
