<svg width="25" height="25" viewBox="0 0 25 25" fill="none" xmlns="http://www.w3.org/2000/svg">
<path d="M12.3431 2.34375C10.6063 2.34422 8.89955 2.79692 7.39087 3.6573C5.88218 4.51768 4.62353 5.75608 3.7388 7.25062C2.85407 8.74515 2.37374 10.4443 2.34511 12.1808C2.31648 13.9174 2.74052 15.6315 3.57549 17.1543L2.75374 20.0306C2.67835 20.2944 2.67487 20.5735 2.74368 20.8391C2.81248 21.1047 2.95106 21.347 3.14504 21.541C3.33903 21.735 3.58137 21.8736 3.84695 21.9424C4.11253 22.0112 4.39168 22.0078 4.65547 21.9324L7.5318 21.1107C8.86847 21.8441 10.3551 22.2622 11.8782 22.333C13.4012 22.4037 14.9202 22.1253 16.3192 21.519C17.7181 20.9127 18.9598 19.9945 19.9495 18.8346C20.9391 17.6748 21.6505 16.304 22.0291 14.8271C22.4077 13.3502 22.4436 11.8063 22.1341 10.3134C21.8245 8.82047 21.1777 7.41811 20.243 6.21352C19.3083 5.00893 18.1106 4.03401 16.7414 3.3633C15.3722 2.6926 13.8677 2.34386 12.3431 2.34375ZM14.6626 18.4965C14.6597 18.4987 14.6545 18.4965 14.6504 18.4965C13.5383 18.4965 12.4371 18.2772 11.4098 17.8513C10.3825 17.4253 9.44929 16.801 8.66348 16.0141C7.87766 15.2271 7.25469 14.293 6.83019 13.2651C6.4057 12.2372 6.18802 11.1357 6.18959 10.0236C6.1931 9.10778 6.55927 8.23065 7.20797 7.58418C7.85667 6.93772 8.73506 6.57457 9.65089 6.57422C9.90324 6.57454 10.1511 6.6414 10.3693 6.76805C10.5876 6.89471 10.7686 7.07668 10.8941 7.29561L12.0182 9.26288C12.1536 9.50018 12.2234 9.76925 12.2205 10.0425C12.2176 10.3157 12.1421 10.5832 12.0017 10.8176L11.318 11.9571C11.6561 12.5433 12.1428 13.03 12.729 13.3682L13.8685 12.6845C14.1029 12.544 14.3704 12.4685 14.6436 12.4656C14.9168 12.4626 15.1859 12.5324 15.4232 12.6678L17.3904 13.7919C17.6093 13.9174 17.7913 14.0984 17.918 14.3167C18.0447 14.535 18.1115 14.7828 18.1118 15.0352C18.1115 15.951 17.7483 16.8293 17.1019 17.478C16.4555 18.1267 15.5784 18.4929 14.6626 18.4965Z" fill="white"/>
<path d="M13.1554 14.9063C13.0491 14.9701 12.9288 15.0073 12.805 15.0146C12.6811 15.0219 12.5574 14.9991 12.4442 14.9482C11.2412 14.4078 10.2783 13.4448 9.7378 12.2418C9.68691 12.1287 9.66415 12.0049 9.67146 11.8811C9.67877 11.7572 9.71593 11.637 9.77977 11.5306L10.6825 10.026L9.58964 8.11353C9.09211 8.12913 8.62004 8.33715 8.2728 8.6938C7.92556 9.05045 7.73022 9.5279 7.72791 10.0257C7.72662 10.9356 7.90473 11.8368 8.25204 12.6779C8.59935 13.5189 9.10906 14.2832 9.75201 14.927C10.395 15.5709 11.1585 16.0817 11.9991 16.4302C12.8396 16.7787 13.7406 16.9581 14.6505 16.9581H14.6604C15.1581 16.9558 15.6356 16.7605 15.9922 16.4132C16.3489 16.066 16.5569 15.5939 16.5725 15.0964L14.66 14.0036L13.1554 14.9063Z" fill="white"/>
</svg>
