<svg width="14" height="14" viewBox="0 0 14 14" fill="none" xmlns="http://www.w3.org/2000/svg">
<g clip-path="url(#clip0_299_579)">
<path d="M6.76 13.52C10.4934 13.52 13.52 10.4934 13.52 6.76C13.52 3.02656 10.4934 0 6.76 0C3.02656 0 0 3.02656 0 6.76C0 10.4934 3.02656 13.52 6.76 13.52Z" fill="white"/>
<path d="M7.73004 6.13997L10.46 3.21997H9.42004L7.27004 5.51997L5.63004 3.21997H2.79004L5.66004 7.23997L2.79004 10.31H3.83004L6.12004 7.85997L7.87004 10.31H10.71L7.73004 6.13997ZM4.26004 3.96997H5.25004L9.25004 9.55997H8.26004L4.26004 3.96997Z" fill="#0E0A30"/>
</g>
<defs>
<clipPath id="clip0_299_579">
<rect width="13.52" height="13.52" fill="white"/>
</clipPath>
</defs>
</svg>
