<svg width="14" height="14" viewBox="0 0 14 14" fill="none" xmlns="http://www.w3.org/2000/svg">
<g clip-path="url(#clip0_299_577)">
<path d="M6.76 13.52C10.4934 13.52 13.52 10.4934 13.52 6.76C13.52 3.02656 10.4934 0 6.76 0C3.02656 0 0 3.02656 0 6.76C0 10.4934 3.02656 13.52 6.76 13.52Z" fill="white"/>
<path d="M9.67006 3.89001H3.85006C3.27006 3.89001 2.81006 4.36001 2.81006 4.93001V8.57001C2.81006 9.15001 3.28006 9.61001 3.85006 9.61001H9.68006C10.2601 9.61001 10.7201 9.14001 10.7201 8.57001V4.93001C10.7201 4.35001 10.2501 3.89001 9.68006 3.89001M7.69006 7.01001L6.07006 7.82001C5.88006 7.91001 5.66006 7.78001 5.66006 7.57001V5.95001C5.66006 5.74001 5.88006 5.61001 6.07006 5.70001L7.69006 6.51001C7.90006 6.61001 7.90006 6.91001 7.69006 7.01001Z" fill="#0E0A30"/>
</g>
<defs>
<clipPath id="clip0_299_577">
<rect width="13.52" height="13.52" fill="white"/>
</clipPath>
</defs>
</svg>
